# xmcd
#
# Track frame offsets:
#	150
#	33614
#	78458
#	104859
#	124437
#
# Disc length: 2179 seconds
#
# Revision: 0
# Processed by: cddbd v1.5.2PL0 Copyright (c) Steve Scherf et al.
# Submitted via: EasyCDDAExtractor 9.0.0.1
#
DISCID=47088105
DTITLE=Iron Maiden - NEC Birmingham 12-12-06 Disc 2
DYEAR=2006
DGENRE=Hard Rock
TTITLE0=Fear Of The Dark 
TTITLE1=Iron Maiden
TTITLE2=2 Minutes To Midnight
TTITLE3=The Evil That Men Do
TTITLE4=Hallowed Be Thy Name
EXTD=
EXTT0=
EXTT1=
EXTT2=
EXTT3=
EXTT4=
PLAYORDER=
